<?xml version="1.0" encoding="utf-8"?>
<!-- Generator: Adobe Illustrator 18.1.0, SVG Export Plug-In . SVG Version: 6.00 Build 0)  -->
<svg version="1.1" id="Layer_1" xmlns="http://www.w3.org/2000/svg" xmlns:xlink="http://www.w3.org/1999/xlink" x="0px" y="0px"
	 width="56.7px" height="56.7px" viewBox="-367 584.3 56.7 56.7" enable-background="new -367 584.3 56.7 56.7"
	 xml:space="preserve">
<path fill="#FFFFFF" d="M-338.7,589.5c-13.6,0-24.6,11-24.6,24.6c0,13.6,11,24.6,24.6,24.6c13.6,0,24.6-11,24.6-24.6
	C-314,600.5-325.1,589.5-338.7,589.5z M-355,614.8v-4.4c0-0.4,0.3-0.7,0.7-0.7h7.6l-3.3,5.7h-4.3C-354.7,615.5-355,615.1-355,614.8z
	 M-349.7,624l-2.5,1.7c-0.3,0.2-0.6,0.1-0.5-0.3l0.3-2.9c0-0.4,0.4-0.6,0.7-0.4l1.9,1.1C-349.3,623.4-349.3,623.8-349.7,624z
	 M-348,622.1c-0.2,0.4-0.7,0.5-1,0.3l-1.9-1.1c-0.4-0.2-0.5-0.7-0.3-1l2.7-4.8l3.3-5.7l3-5.2c0.2-0.4,0.7-0.5,1-0.3l1.9,1.1
	c0.4,0.2,0.5,0.7,0.3,1l-2.7,4.8l-2.5,4.3L-348,622.1z M-342.7,615.5l3.3-5.7h3c1.1,2.6,2,4.4,2.7,5.7H-342.7z M-331,617.4
	c-0.8-0.4-4.7-9.3-5.6-11.7c-1-2.3-4-8.6-3-9c0.7-0.3,3.2,4.5,5,7.5c1.1,1.7,2.8,4.9,4.2,7.5c0,0,0,0.1,0.1,0.1
	c0.1,0.1,0.1,0.2,0.2,0.3c0,0,0,0.1,0.1,0.1c0.1,0.1,0.1,0.2,0.2,0.3c0,0.1,0.1,0.1,0.1,0.2c0,0.1,0.1,0.1,0.1,0.2
	c0,0.1,0.1,0.2,0.1,0.3c0,0,0,0,0,0c0.6,1.1,1,2,1.2,2.3c0,0,0,0.1,0,0.1c0.5,0.9-0.5,1.6-1,1.8C-330,617.5-330.3,617.8-331,617.4z
	 M-328.5,621.5l-1.2-1.9c-0.2-0.4-0.1-0.9,0.3-1.1l1.1-0.6c0.4-0.2,0.9,0,1.1,0.4l0.9,1.8c0.2,0.4,0.1,0.9-0.3,1.1l-0.8,0.5
	C-327.7,622-328.2,621.9-328.5,621.5z M-323.7,626.8c-0.2-0.8-2.1-0.8-3-2c-0.8-1.2-0.1-1.8,0.1-2.1
	C-323.1,620.8-323.7,626.8-323.7,626.8z M-322.8,614.8c0,0.4-0.3,0.7-0.7,0.7h-3.6c0-0.2-0.1-0.4-0.2-0.6c-0.1-0.2-0.4-0.7-0.7-1.4
	c-0.5-1-1.2-2.3-2-3.8h6.6c0.4,0,0.7,0.3,0.7,0.7L-322.8,614.8L-322.8,614.8z"/>
</svg>
