<?xml version="1.0" encoding="utf-8"?>
<!-- Generator: Adobe Illustrator 18.1.0, SVG Export Plug-In . SVG Version: 6.00 Build 0)  -->
<svg version="1.1" id="Layer_1" xmlns="http://www.w3.org/2000/svg" xmlns:xlink="http://www.w3.org/1999/xlink" x="0px" y="0px"
	 width="56.7px" height="56.7px" viewBox="-367 584.3 56.7 56.7" enable-background="new -367 584.3 56.7 56.7"
	 xml:space="preserve">
<path fill="#FFFFFF" d="M-338.7,589.5c-13.6,0-24.6,11-24.6,24.6c0,13.6,11,24.6,24.6,24.6c13.6,0,24.6-11,24.6-24.6
	C-314,600.5-325.1,589.5-338.7,589.5z M-332.1,614h-4.3c0,6.8,0,15.2,0,15.2h-6.3c0,0,0-8.3,0-15.2h-3v-5.4h3v-3.5
	c0-2.5,1.2-6.4,6.4-6.4l4.7,0v5.2c0,0-2.8,0-3.4,0c-0.6,0-1.3,0.3-1.3,1.5v3.2h4.8L-332.1,614z"/>
</svg>
