<?xml version="1.0" encoding="utf-8"?>
<!-- Generator: Adobe Illustrator 18.1.0, SVG Export Plug-In . SVG Version: 6.00 Build 0)  -->
<svg version="1.1" id="Layer_1" xmlns="http://www.w3.org/2000/svg" xmlns:xlink="http://www.w3.org/1999/xlink" x="0px" y="0px"
	 width="56.7px" height="56.7px" viewBox="-367 584.3 56.7 56.7" enable-background="new -367 584.3 56.7 56.7"
	 xml:space="preserve">
<g>
	<path fill="#FFFFFF" d="M-343.2,612.3c0.6,0,1.2-0.2,1.6-0.7c0.6-0.7,0.9-1.9,0.8-3.2c-0.3-2.3-1.9-4.2-3.6-4.2h-0.1
		c-0.6,0-1.1,0.2-1.6,0.7c-0.6,0.7-0.9,1.9-0.7,3.1C-346.6,610.2-344.9,612.2-343.2,612.3L-343.2,612.3z"/>
	<path fill="#FFFFFF" d="M-341.4,619.2c-0.2-0.1-0.3-0.2-0.5-0.4c-0.5-0.2-1.1-0.2-1.7-0.3h-0.1c-2.6,0-4.9,1.6-4.9,3.4
		c0,2,2,3.5,4.5,3.5c3.3,0,5-1.1,5-3.4c0-0.2,0-0.4-0.1-0.7C-339.4,620.5-340.2,620-341.4,619.2z"/>
	<path fill="#FFFFFF" d="M-338.7,589.5c-13.6,0-24.6,11-24.6,24.6c0,13.6,11,24.6,24.6,24.6c13.6,0,24.6-11,24.6-24.6
		C-314,600.5-325.1,589.5-338.7,589.5z M-340.9,627.5c-1,0.3-2,0.4-3.2,0.4c-1.2,0-2.4-0.1-3.5-0.4c-2.1-0.5-3.7-1.6-4.5-2.9
		c-0.3-0.6-0.5-1.2-0.5-1.8c0-0.7,0.2-1.3,0.5-2c1.2-2.5,4.3-4.2,7.7-4.2c0,0,0.1,0,0.1,0c-0.3-0.5-0.4-1-0.4-1.5
		c0-0.3,0-0.5,0.1-0.8c-3.6-0.1-6.3-2.7-6.3-6.2c0-2.5,2-4.9,4.8-5.8c0.8-0.3,1.7-0.4,2.5-0.4h7.7c0.3,0,0.5,0.2,0.6,0.4
		c0.1,0.3,0,0.5-0.2,0.7l-1.7,1.2c-0.1,0.1-0.2,0.1-0.4,0.1h-0.6c0.8,1,1.3,2.3,1.3,3.8c0,1.7-0.9,3.3-2.4,4.5
		c-1.2,0.9-1.2,1.2-1.2,1.7c0,0.3,0.9,1.3,1.8,1.9c2.2,1.5,3,3,3,5.5C-335.9,624.3-337.8,626.6-340.9,627.5z M-323.5,614.3
		c0,0.3-0.3,0.6-0.6,0.6h-4.4v4.4c0,0.3-0.3,0.6-0.6,0.6h-1.2c-0.3,0-0.6-0.3-0.6-0.6v-4.4h-4.4c-0.3,0-0.6-0.3-0.6-0.6V613
		c0-0.3,0.3-0.6,0.6-0.6h4.4V608c0-0.3,0.3-0.6,0.6-0.6h1.2c0.3,0,0.6,0.3,0.6,0.6v4.4h4.4c0.3,0,0.6,0.3,0.6,0.6L-323.5,614.3
		L-323.5,614.3z"/>
</g>
</svg>
