<?xml version="1.0" encoding="utf-8"?>
<!-- Generator: Adobe Illustrator 18.1.0, SVG Export Plug-In . SVG Version: 6.00 Build 0)  -->
<svg version="1.1" id="Layer_1" xmlns="http://www.w3.org/2000/svg" xmlns:xlink="http://www.w3.org/1999/xlink" x="0px" y="0px"
	 width="56.7px" height="56.7px" viewBox="-367 584.3 56.7 56.7" enable-background="new -367 584.3 56.7 56.7"
	 xml:space="preserve">
<g>
	<polygon fill="#FFFFFF" points="-328.5,608.7 -328.5,604.8 -328.5,604.2 -329.1,604.2 -333,604.2 -333,608.7 	"/>
	<path fill="#FFFFFF" d="M-338.8,619.2c2.6,0,4.7-2.1,4.7-4.7c0-1-0.3-2-0.9-2.7c-0.9-1.2-2.2-2-3.8-2c-1.6,0-3,0.8-3.8,2
		c-0.6,0.8-0.9,1.7-0.9,2.7C-343.5,617.1-341.4,619.2-338.8,619.2z"/>
	<path fill="#FFFFFF" d="M-338.7,589.5c-13.6,0-24.6,11-24.6,24.6s11,24.6,24.6,24.6c13.6,0,24.6-11,24.6-24.6
		S-325.1,589.5-338.7,589.5z M-325.4,611.7v11c0,2.9-2.3,5.2-5.2,5.2H-347c-2.9,0-5.2-2.3-5.2-5.2v-11v-5.5c0-2.9,2.3-5.2,5.2-5.2
		h16.4c2.9,0,5.2,2.3,5.2,5.2C-325.4,606.3-325.4,611.7-325.4,611.7z"/>
	<path fill="#FFFFFF" d="M-331.5,614.5c0,4-3.3,7.3-7.3,7.3c-4,0-7.3-3.3-7.3-7.3c0-1,0.2-1.9,0.5-2.7h-4v11c0,1.4,1.1,2.6,2.6,2.6
		h16.4c1.4,0,2.6-1.2,2.6-2.6v-11h-4C-331.6,612.6-331.5,613.5-331.5,614.5z"/>
</g>
</svg>
